:FULLY-SPECIFIED
:FORCE-ALL-JOINTS-BE-3DOF
:DEGREES
2141
root -2.36866 15.2668 -0.104309 902.485 4.09015 187.115
lfemur -49.2223 17.2352 -22.7897
ltibia 43.1 0 0
lfoot 6.88088 19.2596 0
ltoes 0.895706 0 0
rfemur -2.52937 -3.63489 25.5959
rtibia 44.5435 0 0
rfoot -17.3442 5.18954 0
rtoes -26.4527 0 0
lowerback 9.68755 1.1199 0.131792
upperback -2.03743 1.78276 3.40189
thorax -7.575 0.99021 3.29038
lowerneck -5.59575 -1.97512 -6.13381
upperneck 8.64115 -2.55524 3.78814
head 3.88179 -1.31157 2.14419
lclavicle -2.62934e-14 -4.53878e-14 0
lhumerus 46.8562 -10.287 99.1389
lradius 24.2079 0 0
lwrist -48.0356 0 0
lhand -34.1481 404.646 0
lfingers 7.12502 0 0
lthumb -7.32204 -285.519 0
rclavicle -2.62934e-14 -4.53878e-14 0
rhumerus -46.673 19.1296 -95.4158
rradius 109.725 0 0
rwrist -84.9577 0 0
rhand -0.0474 -392.62 0
rfingers 7.12502 0 0
rthumb 23.6991 310.515 0
2142
root -2.34657 15.2709 -0.361235 902.156 3.3877 186.857
lfemur -48.1004 16.869 -22.7471
ltibia 43.5856 0 0
lfoot 5.89957 19.4059 0
ltoes -0.123324 0 0
rfemur -3.97392 -3.68859 25.1085
rtibia 44.8824 0 0
rfoot -16.3847 5.16106 0
rtoes -25.5474 0 0
lowerback 9.83334 1.07792 -0.182808
upperback -1.97139 1.66782 3.35752
thorax -7.57593 0.942315 3.44416
lowerneck -5.59292 -2.09089 -6.17563
upperneck 8.84992 -2.73436 3.8287
head 3.95024 -1.40537 2.14629
lclavicle -2.55832e-14 -4.39702e-14 0
lhumerus 46.0964 -11.2732 98.7735
lradius 25.4292 0 0
lwrist -46.5083 0 0
lhand -33.977 404.471 0
lfingers 7.12502 0 0
lthumb -7.15682 -285.689 0
rclavicle -2.55832e-14 -4.39702e-14 0
rhumerus -45.4713 18.7777 -94.7265
rradius 110.049 0 0
rwrist -84.0617 0 0
rhand 1.8023 -392.514 0
rfingers 7.12502 0 0
rthumb 25.2473 312.223 0
2143
root -2.32449 15.2751 -0.618161 901.827 2.68525 186.598
lfemur -46.9785 16.5027 -22.7045
ltibia 44.0712 0 0
lfoot 4.91825 19.5522 0
ltoes -1.14235 0 0
rfemur -5.41847 -3.74229 24.6211
rtibia 45.2212 0 0
rfoot -15.4252 5.13258 0
rtoes -24.6421 0 0
lowerback 9.97913 1.03595 -0.497408
upperback -1.90535 1.55288 3.31315
thorax -7.57686 0.89442 3.59794
lowerneck -5.5901 -2.20667 -6.21745
upperneck 9.05868 -2.91348 3.86927
head 4.0187 -1.49918 2.14838
lclavicle -2.4873e-14 -4.25527e-14 0
lhumerus 45.3365 -12.2594 98.4081
lradius 26.6506 0 0
lwrist -44.9809 0 0
lhand -33.8059 404.296 0
lfingers 7.12502 0 0
lthumb -6.9916 -285.86 0
rclavicle -2.4873e-14 -4.25527e-14 0
rhumerus -44.2696 18.4258 -94.0372
rradius 110.373 0 0
rwrist -83.1657 0 0
rhand 3.652 -392.408 0
rfingers 7.12502 0 0
rthumb 26.7954 313.93 0
2144
root -2.30241 15.2792 -0.875087 901.498 1.9828 186.339
lfemur -45.8566 16.1365 -22.6619
ltibia 44.5568 0 0
lfoot 3.93694 19.6984 0
ltoes -2.16139 0 0
rfemur -6.86303 -3.79599 24.1337
rtibia 45.56 0 0
rfoot -14.4656 5.1041 0
rtoes -23.7369 0 0
lowerback 10.1249 0.993971 -0.812007
upperback -1.8393 1.43794 3.26879
thorax -7.5778 0.846525 3.75171
lowerneck -5.58728 -2.32244 -6.25927
upperneck 9.26745 -3.09259 3.90984
head 4.08716 -1.59299 2.15048
lclavicle -2.41628e-14 -4.11351e-14 0
lhumerus 44.5766 -13.2456 98.0427
lradius 27.8719 0 0
lwrist -43.4536 0 0
lhand -33.6347 404.121 0
lfingers 7.12502 0 0
lthumb -6.82638 -286.031 0
rclavicle -2.41628e-14 -4.11351e-14 0
rhumerus -43.0679 18.0739 -93.348
rradius 110.696 0 0
rwrist -82.2696 0 0
rhand 5.5017 -392.301 0
rfingers 7.12502 0 0
rthumb 28.3435 315.637 0
2145
root -2.28032 15.2833 -1.13201 901.169 1.28035 186.081
lfemur -44.7347 15.7703 -22.6193
ltibia 45.0424 0 0
lfoot 2.95562 19.8447 0
ltoes -3.18042 0 0
rfemur -8.30758 -3.84968 23.6462
rtibia 45.8988 0 0
rfoot -13.5061 5.07561 0
rtoes -22.8316 0 0
lowerback 10.2707 0.951996 -1.12661
upperback -1.77326 1.323 3.22442
thorax -7.57873 0.79863 3.90549
lowerneck -5.58445 -2.43821 -6.30109
upperneck 9.47621 -3.27171 3.9504
head 4.15561 -1.6868 2.15257
lclavicle -2.34527e-14 -3.97176e-14 0
lhumerus 43.8168 -14.2318 97.6773
lradius 29.0932 0 0
lwrist -41.9262 0 0
lhand -33.4636 403.946 0
lfingers 7.12502 0 0
lthumb -6.66116 -286.202 0
rclavicle -2.34527e-14 -3.97176e-14 0
rhumerus -41.8661 17.7219 -92.6587
rradius 111.02 0 0
rwrist -81.3736 0 0
rhand 7.3514 -392.195 0
rfingers 7.12502 0 0
rthumb 29.8916 317.345 0
2146
root -2.25824 15.2875 -1.38894 900.84 0.5779 185.822
lfemur -43.6128 15.404 -22.5768
ltibia 45.528 0 0
lfoot 1.97431 19.991 0
ltoes -4.19945 0 0
rfemur -9.75213 -3.90338 23.1588
rtibia 46.2376 0 0
rfoot -12.5465 5.04713 0
rtoes -21.9263 0 0
lowerback 10.4165 0.910021 -1.44121
upperback -1.70722 1.20806 3.18005
thorax -7.57967 0.750735 4.05927
lowerneck -5.58163 -2.55399 -6.3429
upperneck 9.68498 -3.45083 3.99097
head 4.22407 -1.7806 2.15467
lclavicle -2.27425e-14 -3.83e-14 0
lhumerus 43.0569 -15.218 97.3119
lradius 30.3146 0 0
lwrist -40.3988 0 0
lhand -33.2925 403.771 0
lfingers 7.12502 0 0
lthumb -6.49594 -286.373 0
rclavicle -2.27425e-14 -3.83e-14 0
rhumerus -40.6644 17.37 -91.9694
rradius 111.344 0 0
rwrist -80.4776 0 0
rhand 9.2011 -392.089 0
rfingers 7.12502 0 0
rthumb 31.4397 319.052 0
2147
root -2.23616 15.2916 -1.64587 900.511 -0.12455 185.563
lfemur -42.4909 15.0378 -22.5342
ltibia 46.0136 0 0
lfoot 0.992995 20.1372 0
ltoes -5.21848 0 0
rfemur -11.1967 -3.95708 22.6714
rtibia 46.5764 0 0
rfoot -11.587 5.01865 0
rtoes -21.0211 0 0
lowerback 10.5623 0.868045 -1.75581
upperback -1.64118 1.09312 3.13568
thorax -7.5806 0.70284 4.21305
lowerneck -5.57881 -2.66976 -6.38472
upperneck 9.89374 -3.62995 4.03154
head 4.29253 -1.87441 2.15676
lclavicle -2.20323e-14 -3.68825e-14 0
lhumerus 42.297 -16.2042 96.9465
lradius 31.5359 0 0
lwrist -38.8715 0 0
lhand -33.1214 403.596 0
lfingers 7.12502 0 0
lthumb -6.33072 -286.544 0
rclavicle -2.20323e-14 -3.68825e-14 0
rhumerus -39.4627 17.0181 -91.2801
rradius 111.668 0 0
rwrist -79.5816 0 0
rhand 11.0508 -391.983 0
rfingers 7.12502 0 0
rthumb 32.9878 320.759 0
